<svg xmlns="http://www.w3.org/2000/svg" xmlns:xlink="http://www.w3.org/1999/xlink" fill-rule="evenodd" image-rendering="optimizeQuality" shape-rendering="geometricPrecision" viewBox="0 0 315 315" xmlns:v="https://vecta.io/nano"><style><![CDATA[.B{opacity:.008}.C{opacity:.004}.D{opacity:.012}.E{opacity:.01}.F{opacity:.006}.G{opacity:.005}.H{opacity:.016}.I{fill:#a95554}.J{opacity:.014}.K{fill:#be803f}.L{fill:#fe807f}]]></style><path d="M175.5 1.5c1.101-1.098 2.434-1.265 4-.5-1.293.49-2.627.657-4 .5z" class="F"/><use xlink:href="#B" class="E"/><path d="M86.5 7.5c-.739.131-1.406-.036-2-.5.937-.692 1.603-.525 2 .5z" class="E"/><path d="M172.5 5.5c-6.065-.239-12.065.261-18 1.5-10.393 4.603-21.059 8.603-32 12-7.812 1.024-15.479 2.357-23 4 7.482 2.164 15.149 3.831 23 5a339.16 339.16 0 0 0 48-1c-27.454 10.016-55.454 12.682-84 8 17.179 13.923 36.513 23.59 58 29 19.31 2.446 37.977.112 56-7a45.46 45.46 0 0 0 11-6.5c.599 10.396 2.432 20.729 5.5 31 5.149 7.966 9.482 16.3 13 25 1.052 5.617 1.718 11.284 2 17 1.495-5.302 2.662-10.635 3.5-16-1.484-6.599-1.984-13.266-1.5-20 3.774-8.067 4.441-16.4 2-25-1.692-5.919-3.859-11.586-6.5-17 6.741 6.141 10.908 13.808 12.5 23 1.206 10.198.373 20.198-2.5 30a88.89 88.89 0 0 1-1 30l-1 4-3 12c-1.037 1.43-1.704 3.097-2 5-2.088 1.836-3.421 4.169-4 7l-2-1a19.22 19.22 0 0 1-1-6c-.428-5.676-.595-11.343-.5-17 3.083-2.449 3.249-5.116.5-8 .699-6.975-.134-13.975-2.5-21-3.928-7.528-8.094-14.861-12.5-22-1.355-6.262-2.355-12.596-3-19l-4 3c-8.732 5.575-18.399 8.575-29 9a426.22 426.22 0 0 1-38-1c-3.759-1.044-7.425-2.378-11-4-6.31 1.791-12.31 1.124-18-2-11.769 16.645-17.769 35.312-18 56-2.299 1.132-3.632 2.965-4 5.5 1.118 2.059 1.785 4.226 2 6.5-1.318 6.594-1.985 13.26-2 20l-2-1c-.61-1.934-1.61-3.601-3-5-.61-1.934-1.61-3.601-3-5a314.29 314.29 0 0 1-4-17v-2c-.524-1.806-1.191-3.472-2-5-1.25-2.506-1.916-5.173-2-8 .978-.311 1.644-.978 2-2-5.497-17.722-5.331-35.388.5-53 1.413-3.161 3.08-6.161 5-9l1-10a12.65 12.65 0 0 1 2.5 4c-5.29 13.201-8.29 27.034-9 41.5a164.8 164.8 0 0 0 9.5 48.5c-1.474-14.92-1.807-29.92-1-45 1.783-5.567 4.117-10.901 7-16 .654-1.196 1.154-1.196 1.5 0-5.501 11.342-6.334 23.009-2.5 35 1.196-6.451 2.863-12.784 5-19 3.959-7.764 8.459-15.098 13.5-22 .923.803 1.923.97 3 .5A342.45 342.45 0 0 1 85 44.5 712.49 712.49 0 0 1 71.5 23c6.991 2.916 14.324 4.916 22 6-4.289-5.113-6.956-10.947-8-17.5 9.302 3.742 18.969 4.909 29 3.5a1042.04 1042.04 0 0 1 35-10c7.845-.822 15.511-.656 23 .5z" fill="#2a2018"/><use xlink:href="#C" class="D"/><use xlink:href="#D" class="F"/><path d="M82.5 16.5c-1.001-1.289-.834-2.622.5-4 .765 1.566.598 2.899-.5 4z" class="G"/><path d="M216.5 13.5h1c-.333 2.667-.667 2.667-1 0z" class="E"/><use xlink:href="#C" x="132" y="8" class="C"/><path d="M69.5 17.5c1.279-1.215 2.279-.882 3 1h-2c0-.667-.333-1-1-1z" class="F"/><path d="M172.5 5.5c16.099 2.881 28.766 11.047 38 24.5 8.596 2.432 14.929 7.599 19 15.5 2.641 5.414 4.808 11.08 6.5 17 2.441 8.6 1.774 16.933-2 25-.484 6.734.016 13.401 1.5 20-.838 5.365-2.005 10.698-3.5 16-.282-5.716-.948-11.383-2-17a148.53 148.53 0 0 0-13-25c-3.068-10.271-4.901-20.604-5.5-31a45.46 45.46 0 0 1-11 6.5c-18.023 7.112-36.69 9.446-56 7-21.487-5.41-40.821-15.077-58-29 28.546 4.682 56.546 2.016 84-8a339.16 339.16 0 0 1-48 1c-7.851-1.169-15.518-2.836-23-5 7.521-1.643 15.188-2.976 23-4 10.941-3.397 21.607-7.397 32-12 5.935-1.239 11.935-1.739 18-1.5z" fill="#3a3128"/><use xlink:href="#C" x="135" y="11" class="B"/><use xlink:href="#E" class="B"/><path d="M68.5 20.5a4.93 4.93 0 0 1-.5 3c-.74-1.249-.573-2.249.5-3z" class="C"/><path d="M175.5 1.5c4.799 1.392 9.466 3.392 14 6 .951-.826 1.951-.992 3-.5 2.878 4.368 6.878 8.201 12 11.5 0 .667.333 1 1 1-.172.992.162 1.658 1 2 .801-1.542 1.134-3.209 1-5 2.058-2.497 3.224-1.83 3.5 2l4-8c1.039.744 1.539 1.744 1.5 3-3.169 5.028-2.169 6.361 3 4 .798.457 1.131 1.124 1 2-.667 0-1 .333-1 1-.667 0-1 .333-1 1-1.256-.039-2.256.461-3 1.5 1.819.74 3.152 1.907 4 3.5-1.915-.285-3.581.049-5 1-1.333.333-1.333.667 0 1 .709.904 1.709 1.237 3 1 .473 1.406 1.473 2.073 3 2 7.746 6.41 14.413 13.743 20 22 .542 3.412 1.875 6.412 4 9-.284 1.915.049 3.581 1 5v19c-.961 1.765-1.295 3.765-1 6-1.133 1.555-1.799 3.389-2 5.5 1.048 4.789 1.715 9.622 2 14.5-.968 2.107-1.302 4.441-1 7-1.238 1.714-1.905 3.714-2 6-1.228.806-2.228 1.806-3 3a88.89 88.89 0 0 0 1-30c2.873-9.802 3.706-19.802 2.5-30-1.592-9.193-5.759-16.859-12.5-23-4.071-7.901-10.404-13.068-19-15.5-9.234-13.453-21.901-21.619-38-24.5-7.489-1.156-15.155-1.322-23-.5a1042.04 1042.04 0 0 0-35 10c-10.031 1.409-19.698.242-29-3.5 1.044 6.553 3.711 12.387 8 17.5-7.676-1.084-15.009-3.084-22-6 4.375 7.251 8.875 14.418 13.5 21.5 7.171 7.504 14.67 14.67 22.5 21.5-1.077.47-2.077.303-3-.5-4.101-2.922-8.101-6.089-12-9.5-3.865-4.694-7.865-9.194-12-13.5a12.65 12.65 0 0 0-2.5-4l-1 10c-1.92 2.839-3.587 5.839-5 9-5.831 17.612-5.997 35.278-.5 53-.356 1.022-1.022 1.689-2 2-.722-.418-1.222-1.084-1.5-2l-1 2c-1.721-2.815-2.388-5.815-2-9l1 3c-.583-12.293-.583-24.626 0-37 1.456-7.714 4.456-14.714 9-21l-.5-12c1.333-.667 1.333-1.333 0-2-.764-2.518-1.764-4.851-3-7 .172-.992-.162-1.658-1-2-.296-1.903-.963-3.57-2-5 .086-.996-.248-1.829-1-2.5.594-.464 1.261-.631 2-.5.667 0 1 .333 1 1 .473 1.406 1.473 2.073 3 2 .342.838 1.008 1.172 2 1 1.543 2.057 2.543 2.057 3 0 .985-2.006 2.318-3.673 4-5a129.68 129.68 0 0 1 1.5 7c1.457-4.84 1.29-9.673-.5-14.5a4.93 4.93 0 0 1 3-.5c2.635 1.828 5.635 2.995 9 3.5 5.333.667 10.667.667 16 0 13.163-4.291 26.496-7.957 40-11 8.023-.657 16.023-.49 24 .5zm-105 17h2l1 2c-1.527.073-2.527-.594-3-2zm136-2h1c.134 1.791-.199 3.458-1 5-.838-.342-1.172-1.008-1-2 .904-.709 1.237-1.709 1-3zm-131 5h3c-.457 2.057-1.457 2.057-3 0z" fill="#100c07" opacity=".957"/><path d="M78.5 21.5h-3c1.543-2.057 2.543-2.057 3 0z" class="J"/><path d="M206.5 16.5c.237 1.291-.096 2.291-1 3-.667 0-1-.333-1-1a3 3 0 0 1 2-2z" opacity=".013"/><path d="M115.5 9.5c.751-1.073 1.751-1.24 3-.5a4.93 4.93 0 0 1-3 .5z" class="G"/><use xlink:href="#B" x="-91" y="7" class="F"/><use xlink:href="#E" x="-1" y="1" class="B"/><use xlink:href="#E" x="-2" y="2" class="D"/><use xlink:href="#F" opacity=".02"/><path d="M70.5 25.5c-.172.992.162 1.658 1 2 .107 1.879-.393 2.212-1.5 1l-1.5-3c.47-.963 1.136-.963 2 0z" class="E"/><use xlink:href="#C" x="134" y="18" class="C"/><use xlink:href="#E" x="-1" y="7" opacity=".027"/><path d="M214.5 28.5v-1h5a3 3 0 0 1-2 2c-.709-.904-1.709-1.237-3-1z" class="D"/><use xlink:href="#C" x="134" y="23" class="B"/><path d="M74.5 34.5v2c-.817 2.469-1.317 5.135-1.5 8a20.5 20.5 0 0 1 0-9c.383-.556.883-.889 1.5-1z" class="B"/><path d="M80.5 42.5c4.135 4.306 8.135 8.806 12 13.5 3.899 3.411 7.899 6.578 12 9.5a161.97 161.97 0 0 0-13.5 22 132.83 132.83 0 0 0-5 19c-3.834-11.991-3.001-23.658 2.5-35-.346-1.196-.846-1.196-1.5 0a85.26 85.26 0 0 0-7 16c-.807 15.08-.474 30.08 1 45A164.8 164.8 0 0 1 71.5 84c.71-14.466 3.71-28.299 9-41.5z" fill="#3a3128"/><path d="M241.5 53.5c-.667-1.333-.667-1.333 0 0z" class="H"/><path d="M241.5 53.5c1.025.397 1.192 1.063.5 2-.464-.594-.631-1.261-.5-2z" class="F"/><use xlink:href="#D" x="27" y="49" class="D"/><path d="M245.5 67.5a8.43 8.43 0 0 1 .5-4c.765 1.566.598 2.899-.5 4z" class="C"/><path d="M225.5 124.5l-2-2c-.204-13.077-4.371-24.743-12.5-35-2.113-6.493-4.447-12.16-7-17-1.836 2.879-4.336 4.379-7.5 4.5l9-9c-.594-.464-1.261-.631-2-.5 1.265-.979 2.599-1.979 4-3a170.6 170.6 0 0 0 3 19 351.2 351.2 0 0 1 12.5 22c2.366 7.025 3.199 14.025 2.5 21z" fill="#18130f"/><path d="M246.5 68.5l2 8.5c-.782 2.74-1.282 5.574-1.5 8.5a145.05 145.05 0 0 1-.5-17z" opacity=".015"/><path d="M63.5 70.5c1.159 10.158 1.325 20.492.5 31a480.95 480.95 0 0 1-.5-31z" class="F"/><path d="M203.5 65.5c.739-.131 1.406.036 2 .5l-9 9c3.164-.121 5.664-1.621 7.5-4.5 2.553 4.84 4.887 10.507 7 17 8.129 10.257 12.296 21.923 12.5 35-.235.597-.735.93-1.5 1a56.82 56.82 0 0 1-7.5-4c-3.215-2.356-6.881-3.856-11-4.5-12.517-1.091-24.85-.091-37 3-1.268 2.163-1.268 4.33 0 6.5-6.757 1.494-13.424 1.327-20-.5 2.667-2 2.667-4 0-6-12.849-3.026-25.849-4.026-39-3-6.134 2.656-12.134 5.489-18 8.5.231-20.688 6.231-39.355 18-56 5.69 3.124 11.69 3.791 18 2 3.575 1.622 7.241 2.956 11 4 1.109.79 2.442 1.29 4 1.5 11.508.826 22.841.659 34-.5 10.601-.425 20.268-3.425 29-9z" fill="#eec7b2"/><path d="M136.5 73.5a426.22 426.22 0 0 0 38 1c-11.159 1.159-22.492 1.326-34 .5-1.558-.21-2.891-.71-4-1.5z" fill="#8f7769"/><path d="m245.5 86.5c1.333 2 1.333 4 0 6v-6z" class="C"/><path d="M244.5 92.5h1c-.333 4-.667 4-1 0z" class="E"/><path d="M245.5 112.5c-.162-2.027.005-4.027.5-6 .789 2.212.622 4.212-.5 6z" class="C"/><path d="M244.5 112.5h1c.302 2.559-.032 4.893-1 7v-7z" class="E"/><path d="M214.5 119.5c-14.07-1.609-28.07-1.109-42 1.5-2.353.713-4.353 1.879-6 3.5-1.268-2.17-1.268-4.337 0-6.5 12.15-3.091 24.483-4.091 37-3 4.119.644 7.785 2.144 11 4.5z" fill="#28222a"/><path d="M243.5 119.5h1c-.333 4-.667 4-1 0z" opacity=".018"/><use xlink:href="#F" x="-147" y="98" class="H"/><use xlink:href="#C" x="-16" y="116" fill="#fe0000" class="C"/><use xlink:href="#F" x="-148" y="102" fill="#feaa54" class="D"/><path d="M166.5 124.5c1.647-1.621 3.647-2.787 6-3.5 13.93-2.609 27.93-3.109 42-1.5a56.82 56.82 0 0 0 7.5 4c.765-.07 1.265-.403 1.5-1l2 2c2.749 2.884 2.583 5.551-.5 8-.095 5.657.072 11.324.5 17-.814-2.131-1.314-4.464-1.5-7-.822 2.617-1.322 5.284-1.5 8-.494 6.83-3.828 11.664-10 14.5-9.609 1.359-19.276 1.859-29 1.5-9.885-2.716-16.385-9.05-19.5-19-1.737-4.161-2.737-8.495-3-13-3-2.667-6-2.667-9 0-1.135 11.104-5.635 20.604-13.5 28.5-3.393 2.076-7.06 3.242-11 3.5a133.23 133.23 0 0 1-27-1.5c-5.59-2.341-8.924-6.508-10-12.5-.899-5.815-1.899-11.482-3-17-.215-2.274-.882-4.441-2-6.5.368-2.535 1.701-4.368 4-5.5 5.866-3.011 11.866-5.844 18-8.5 13.151-1.026 26.151-.026 39 3 2.667 2 2.667 4 0 6 6.576 1.827 13.243 1.994 20 .5z" fill="#2a292b"/><path d="M110.5 122.5c11.393-1.051 22.393.449 33 4.5l3.5 3.5c1.271 24.396-10.229 35.563-34.5 33.5-9.699.7-15.866-3.467-18.5-12.5-4.753-15.853.747-25.519 16.5-29z" fill="#ebccbb"/><path d="M66.5 130.5c-.838.342-1.172 1.008-1 2-1.296-1.349-1.13-2.682.5-4 .464.594.631 1.261.5 2z" fill="#b16f4e" class="D"/><path d="M63.5 133.5c1.148 4.481 1.315 9.148.5 14a98.43 98.43 0 0 1-.5-14z" fill="#a58559" class="B"/><path d="M248.5 146.5c-.166-4.014.001-8.014.5-12 .812 4.189.645 8.189-.5 12z" fill="#da8173" class="B"/><path d="M181.5 122.5c7.008-.166 14.008 0 21 .5a32.32 32.32 0 0 1 15.5 8.5c6.064 27.601-4.77 38.101-32.5 31.5-5.081-.467-9.248-2.634-12.5-6.5-6.002-7.674-8.335-16.341-7-26l3.5-3.5c4.071-1.63 8.071-3.13 12-4.5z" fill="#eecfbe"/><path d="M247.5 146.5h1c.284 1.915-.049 3.581-1 5v-5z" fill="#c09b49" opacity=".024"/><path d="M65.5 153.5c-1.098-1.101-1.265-2.434-.5-4 .49 1.293.657 2.627.5 4z" fill="#e07b4a" class="D"/><path d="M246.5 151.5h1c.237 1.291-.096 2.291-1 3v-3z" fill="#c8ba51" class="D"/><path d="M65.5 153.5h1v2c-.838-.342-1.172-1.008-1-2z" fill="#b7955b" class="D"/><path d="M245.5 154.5h1c.237 1.291-.096 2.291-1 3v-3z" fill="#ffa1f6" class="C"/><path d="M66.5 155.5h1c-.333 2.667-.667 2.667-1 0z" fill="#ed7777" class="B"/><use xlink:href="#G" fill="#8f8d73" class="B"/><use xlink:href="#E" x="23" y="140" fill="#cb9965" opacity=".02"/><use xlink:href="#G" x="-2" y="3" fill="#e5c53d" class="C"/><use xlink:href="#G" x="-3" y="5" fill="#d6d250" class="C"/><use xlink:href="#E" x="20" y="145" class="D I"/><path d="M72.5 164.5c.131.739-.036 1.406-.5 2-.692-.937-.525-1.603.5-2z" fill="#ff7ef8" class="C"/><use xlink:href="#E" x="19" y="146" class="H K"/><use xlink:href="#G" x="-6" y="9" fill="#e43526" class="C"/><use xlink:href="#F" x="-143" y="146" class="H K"/><use xlink:href="#H" fill="#c48753" class="D"/><path d="M76.5 170.5v2c-1.333-.667-1.333-1.333 0-2z" fill="#d68280" class="B"/><use xlink:href="#G" x="-9" y="14" fill="#f1cc43" class="C"/><path d="M76.5 172.5h1v2c-.838-.342-1.172-1.008-1-2z" fill="#dc7777" class="B"/><path d="M234.5 173.5h1c.237 1.291-.096 2.291-1 3v-3z" fill="#a13e29" class="C"/><path d="M77.5 174.5h1v2c-.838-.342-1.172-1.008-1-2z" fill="#9c7977" class="B"/><path d="M78.5 176.5h1c-.333 4-.667 4-1 0z" fill="#a13e29" class="C"/><use xlink:href="#G" x="-11" y="19" fill="#917271" class="B"/><path d="M73.5 125.5v2c-2.606 1.35-2.606 2.85 0 4.5-1.476 3.132-2.143 6.465-2 10a85.68 85.68 0 0 1 .5 11.5c-2.489-7.537-3.156-15.204-2-23-3.265 8.726-2.932 17.393 1 26a130.02 130.02 0 0 1 13 23c2.868 4.121 5.034 3.954 6.5-.5-1.376-6.476-3.709-12.476-7-18 1.105-2.12 1.105-4.287 0-6.5l2 1c5.92 35.35 23.586 63.184 53 83.5 13.268 3.773 26.268 3.107 39-2 28.107-19.971 44.44-47.138 49-81.5l2 1c-1.521 7.75-3.521 15.417-6 23 1.016 3.631 2.85 3.964 5.5 1 4.225-9.452 9.225-18.452 15-27 1.397-6.952 1.73-13.952 1-21l-1-1-1 17-1-12c-.498-2.044-1.665-3.378-3.5-4l1-4c.772-1.194 1.772-2.194 3-3 2.809 2.263 4.642 5.263 5.5 9 .499 3.986.666 7.986.5 12-.951 1.419-1.284 3.085-1 5-.904.709-1.237 1.709-1 3-.904.709-1.237 1.709-1 3-.838.342-1.172 1.008-1 2-.667 0-1 .333-1 1-.838.342-1.172 1.008-1 2-.838.342-1.172 1.008-1 2-.667 0-1 .333-1 1-.667 0-1 .333-1 1-.838.342-1.172 1.008-1 2-.667 0-1 .333-1 1-.838.342-1.172 1.008-1 2-.838.342-1.172 1.008-1 2-.904.709-1.237 1.709-1 3-.838.342-1.172 1.008-1 2-.838.342-1.172 1.008-1 2-1.462.958-2.795 2.124-4 3.5l-6 1c2.103.853 2.103 2.02 0 3.5-.333-2.667-.667-2.667-1 0-1.431 1.28-2.098 2.947-2 5-.838.342-1.172 1.008-1 2-.838.342-1.172 1.008-1 2-.838.342-1.172 1.008-1 2-.838.342-1.172 1.008-1 2-.667 0-1 .333-1 1-.838.342-1.172 1.008-1 2-.667 0-1 .333-1 1-.838.342-1.172 1.008-1 2-.667 0-1 .333-1 1-1.406.473-2.073 1.473-2 3-.667 0-1 .333-1 1-.838.342-1.172 1.008-1 2-.667 0-1 .333-1 1-.667 0-1 .333-1 1-.667 0-1 .333-1 1-.667 0-1 .333-1 1-.667 0-1 .333-1 1-.838.342-1.172 1.008-1 2-.667 0-1 .333-1 1-.667 0-1 .333-1 1-.667 0-1 .333-1 1-.667 0-1 .333-1 1-1.641.647-2.974 1.647-4 3-.989 5.475-1.322 11.142-1 17h-1v-2c.326-4.384-.008-8.717-1-13-8.931 10.029-20.098 14.029-33.5 12-5.58.091-11.08-.409-16.5-1.5a354.47 354.47 0 0 1-14.5-10.5c-.499 3.986-.666 7.986-.5 12v2c-.826-4.482-1.326-9.149-1.5-14-.257-2.407-1.424-4.073-3.5-5-.342-.838-1.008-1.172-2-1 0-.667-.333-1-1-1a57.73 57.73 0 0 0-8-10c0-.667-.333-1-1-1-.432-1.21-1.099-2.21-2-3 0-.667-.333-1-1-1-.432-1.21-1.099-2.21-2-3-.975-2.295-2.308-4.295-4-6-.879-2.762-2.046-5.429-3.5-8l-1 2c-.977-2.602-2.144-5.102-3.5-7.5l2-1c-2.707-.395-5.373-.895-8-1.5l-4-7c.172-.992-.162-1.658-1-2 .172-.992-.162-1.658-1-2 .172-.992-.162-1.658-1-2 .172-.992-.162-1.658-1-2l-3-4c-1.429-3.196-3.095-6.196-5-9 .172-.992-.162-1.658-1-2-.79-6.971-1.123-13.971-1-21 .838-.342 1.172-1.008 1-2 1.467-2.79 3.8-4.456 7-5z" fill="#c57e58" opacity=".455"/><path d="M183.5 166.5c6.821.829 13.821 1.329 21 1.5l-17 1c2.547.067 4.714.901 6.5 2.5l1-2a65.81 65.81 0 0 0 1.5 8.5c-1.163 8.656-3.83 16.823-8 24.5.318 1.147.984 1.981 2 2.5l-3.5 3.5c-1.049-1.017-2.216-1.184-3.5-.5-.776 2.987-2.443 3.82-5 2.5-7.601 4.888-15.934 7.055-25 6.5 13.611-6.16 12.611-8.16-3-6a14.97 14.97 0 0 0 3 3.5c-.671 1.446-1.838 2.112-3.5 2a124.46 124.46 0 0 1-17-5c-.873.235-1.707.569-2.5 1l-7-7c-1.206-1.984-1.206-3.984 0-6-5.775-9.54-7.775-19.54-6-30a32.46 32.46 0 0 0 8-.5l-18-1c6.846-.172 13.513-.672 20-1.5 3.94-.258 7.607-1.424 11-3.5 7.865-7.896 12.365-17.396 13.5-28.5 3-2.667 6-2.667 9 0 .263 4.505 1.263 8.839 3 13 3.115 9.95 9.615 16.284 19.5 19z" fill="#f0c8b3"/><path d="M228.5 156.5c.579-2.831 1.912-5.164 4-7 2.166 2.691 2.499 5.691 1 9l.5 1c2.436-3.983 3.102-8.316 2-13-.278-.916-.778-1.582-1.5-2l3-12c1.835.622 3.002 1.956 3.5 4l1 12 1-17 1 1c.73 7.048.397 14.048-1 21-5.775 8.548-10.775 17.548-15 27-2.65 2.964-4.484 2.631-5.5-1 2.479-7.583 4.479-15.25 6-23z" fill="#e9bda5"/><path d="M73.5 127.5a314.29 314.29 0 0 0 4 17c-2.747 5.052-2.58 10.052.5 15 .654 1.196 1.154 1.196 1.5 0-1.075-2.938-1.242-5.938-.5-9 .383-.556.883-.889 1.5-1 1.39 1.399 2.39 3.066 3 5 1.105 2.213 1.105 4.38 0 6.5 3.291 5.524 5.624 11.524 7 18-1.466 4.454-3.632 4.621-6.5.5a130.02 130.02 0 0 0-13-23c-3.932-8.607-4.265-17.274-1-26-1.156 7.796-.489 15.463 2 23a85.68 85.68 0 0 0-.5-11.5c-.143-3.535.524-6.868 2-10-2.606-1.65-2.606-3.15 0-4.5z" fill="#eabea6"/><path d="M234.5 144.5c.722.418 1.222 1.084 1.5 2 1.102 4.684.436 9.017-2 13l-.5-1c1.499-3.309 1.166-6.309-1-9 .296-1.903.963-3.57 2-5z" fill="#c07850"/><path d="M77.5 144.5c1.39 1.399 2.39 3.066 3 5-.617.111-1.117.444-1.5 1-.742 3.062-.575 6.062.5 9-.346 1.196-.846 1.196-1.5 0-3.08-4.948-3.247-9.948-.5-15z" fill="#c17b56"/><path d="M183.5 131.5c3.462-.982 7.129-1.315 11-1h1c5.318 4.954 5.318 9.954 0 15-3.439.247-6.772-.086-10-1-3.953-4.169-3.953-8.335 0-12.5-.594-.464-1.261-.631-2-.5z" fill="#848eb9"/><path d="M127.5 130.5c1.495.489 2.829 1.155 4 2-.876-.131-1.543.202-2 1 1.224 2.995 1.224 5.995 0 9l-3 2c-3.149.289-6.149-.211-9-1.5-1.655-1.444-2.322-3.278-2-5.5 2.481-.177 4.314.823 5.5 3l4.5-2-2-4c1.579-1.167 2.912-2.5 4-4z" fill="#8a93bc"/><path d="M183.5 131.5c.739-.131 1.406.036 2 .5-3.953 4.165-3.953 8.331 0 12.5a19.22 19.22 0 0 0-6-1c-4.672.012-6.506-2.322-5.5-7 1.045-.873 1.878-1.873 2.5-3 2.246-.955 4.579-1.622 7-2z" fill="#e5e6e6"/><path d="M189.5 135.5c3-.333 4.333 1 4 4-4.407 1.871-5.74.538-4-4z" fill="#393b41"/><path d="M131.5 132.5c2.48.742 4.813 1.742 7 3 .672 7.342-2.328 9.675-9 7 1.224-3.005 1.224-6.005 0-9 .457-.798 1.124-1.131 2-1z" fill="#e9eaeb"/><path d="M195.5 130.5c4.212-.422 8.212.244 12 2a7.11 7.11 0 0 1 1 5 16.34 16.34 0 0 1-2 5c-3.226 2.377-6.893 3.377-11 3 5.318-5.046 5.318-10.046 0-15z" fill="#e9ebed"/><path d="M117.5 130.5h10c-1.088 1.5-2.421 2.833-4 4l2 4-4.5 2c-1.186-2.177-3.019-3.177-5.5-3-.322 2.222.345 4.056 2 5.5 2.851 1.289 5.851 1.789 9 1.5-2.787.977-5.787 1.31-9 1-5.333-5-5.333-10 0-15z" fill="#64709d"/><path d="M117.5 130.5c-5.333 5-5.333 10 0 15-9.351 1.188-13.685-2.812-13-12 .558-1.29 1.558-2.123 3-2.5 3.317-.498 6.65-.665 10-.5z" fill="#eceeef"/><path d="M197.5 128.5c5.761-.146 10.761 1.687 15 5.5-1.85.69-3.184 1.856-4 3.5a7.11 7.11 0 0 0-1-5c-3.788-1.756-7.788-2.422-12-2h-1l3-2z" fill="#6d6c6b"/><path d="M197.5 128.5l-3 2c-3.871-.315-7.538.018-11 1-2.421.378-4.754 1.045-7 2 1.928-1.974 4.261-3.474 7-4.5a98.43 98.43 0 0 1 14-.5z" fill="#272728"/><path d="M138.5 135.5c-2.187-1.258-4.52-2.258-7-3-1.171-.845-2.505-1.511-4-2h-10c-3.35-.165-6.683.002-10 .5-1.442.377-2.442 1.21-3 2.5-.768.763-1.268 1.763-1.5 3a4.59 4.59 0 0 0-2.5-2.5c1.805-2.403 4.138-4.07 7-5 7-.667 14-.667 21 0 3.911 1.444 7.244 3.611 10 6.5z" fill="#3b3939"/><use xlink:href="#G" x="-12" y="21" fill="#8f8071" class="B"/><use xlink:href="#E" x="11" y="161" class="D I"/><g class="L"><path d="M83.5 183.5v1c-.67-.481-.67-.815 0-1z" class="B"/><path d="M83.5 184.5c.667 0 1 .333 1 1l-1-1z" class="B"/></g><path d="M84.5 185.5c1.052-.149 2.052.017 3 .5-1.249.74-2.249.573-3-.5z" fill="#ffc25d" class="B"/><use xlink:href="#B" x="45" y="184" fill="#d68280" class="B"/><path d="M220.5 188.5h1c-.333 2.667-.667 2.667-1 0z" fill="#9c7977" class="B"/><use xlink:href="#D" x="2" y="180" fill="#ffc1f7" class="C"/><use xlink:href="#G" x="-26" y="36" fill="#c88d4d" class="D"/><use xlink:href="#G" x="-27" y="38" fill="#e9806a" class="B"/><g fill="#feaa54"><use xlink:href="#E" x="-4" y="178" class="D"/><use xlink:href="#F" x="-121" y="177" class="D"/></g><path d="M215.5 199.5c1.333.667 1.333 1.333 0 2v-2z" fill="#feff00" class="C"/><use xlink:href="#H" x="-23" y="33" fill="#86635b" class="B"/><use xlink:href="#E" x="-8" y="185" class="B L"/><use xlink:href="#F" x="-117" y="183" fill="#a9aa54" class="D"/><use xlink:href="#G" x="-33" y="48" fill="#b46c5a" class="B"/><use xlink:href="#E" x="-10" y="188" class="H K"/><use xlink:href="#E" x="-11" y="189" class="D I"/><path d="M87.5 135.5c1.101 5.518 2.101 11.185 3 17-.768-.763-1.268-1.763-1.5-3 3.332 36.34 19.832 65.173 49.5 86.5 6.145 2.924 12.645 4.091 19.5 3.5l11.5-.5c32.841-20.884 50.508-50.384 53-88.5.178-2.716.678-5.383 1.5-8 .186 2.536.686 4.869 1.5 7a19.22 19.22 0 0 0 1 6c-4.56 34.362-20.893 61.529-49 81.5-12.732 5.107-25.732 5.773-39 2-29.414-20.316-47.08-48.15-53-83.5.015-6.74.682-13.406 2-20z" fill="#e5b69d"/><path d="M153.5 148.5c.66 1.464.993 3.131 1 5l-3 25.5c.295 2.923 1.629 5.257 4 7-4.681.495-8.015-1.339-10-5.5 3.287-10.526 5.954-21.192 8-32z" fill="#c37d57"/><path d="M90.5 152.5c1.076 5.992 4.41 10.159 10 12.5a133.23 133.23 0 0 0 27 1.5c-6.487.828-13.154 1.328-20 1.5l18 1a32.46 32.46 0 0 1-8 .5c-1.775 10.46.225 20.46 6 30-1.206 2.016-1.206 4.016 0 6l7 7c.793-.431 1.627-.765 2.5-1a124.46 124.46 0 0 0 17 5c1.662.112 2.829-.554 3.5-2a14.97 14.97 0 0 1-3-3.5c15.611-2.16 16.611-.16 3 6 9.066.555 17.399-1.612 25-6.5 2.557 1.32 4.224.487 5-2.5 1.284-.684 2.451-.517 3.5.5l3.5-3.5c-1.016-.519-1.682-1.353-2-2.5 4.17-7.677 6.837-15.844 8-24.5a65.81 65.81 0 0 1-1.5-8.5l-1 2c-1.786-1.599-3.953-2.433-6.5-2.5l17-1c-7.179-.171-14.179-.671-21-1.5 9.724.359 19.391-.141 29-1.5 6.172-2.836 9.506-7.67 10-14.5-2.492 38.116-20.159 67.616-53 88.5l-11.5.5c-6.855.591-13.355-.576-19.5-3.5-29.668-21.327-46.168-50.16-49.5-86.5.232 1.237.732 2.237 1.5 3z" fill="#eec5af"/><path d="M136.5 203.5c13.35-.333 26.683.001 40 1l-20 1c-7.035-.003-13.702-.67-20-2z" fill="#d49a7a"/><path d="M206.5 142.5c-.256 2.276-1.59 3.443-4 3.5-5.667.667-11.333.667-17 0-2.352-.24-4.352-1.073-6-2.5a19.22 19.22 0 0 1 6 1c3.228.914 6.561 1.247 10 1 4.107.377 7.774-.623 11-3z" fill="#92837b"/><path d="M103.5 208.5c.667 0 1 .333 1 1-.247 2.475-.913 2.475-2 0 .124-.607.457-.94 1-1z" fill="#fa8a52" class="B"/><use xlink:href="#C" x="122" y="203" fill="#7f807f" class="B"/><use xlink:href="#H" x="-30" y="43" fill="#745230" class="C"/><path d="M106.5 212.5c.667 0 1 .333 1 1-.247 2.475-.913 2.475-2 0 .124-.607.457-.94 1-1z" fill="#ffce53" class="C"/><use xlink:href="#E" x="-15" y="195" fill="#7f807f" class="B"/><use xlink:href="#E" x="-16" y="196" class="B L"/><use xlink:href="#E" x="-17" y="197" class="D I"/><use xlink:href="#E" x="-18" y="198" class="H K"/><use xlink:href="#E" x="-19" y="199" class="D I"/><use xlink:href="#G" x="-44" y="62" fill="#a41a0a" class="C"/><use xlink:href="#E" x="-21" y="202" class="B L"/><use xlink:href="#E" x="-22" y="203" class="D I"/><path d="M115.5 223.5c.667 0 1 .333 1 1-.06.543-.393.876-1 1-1.273-.757-1.273-1.423 0-2z" fill="#3c322a" class="C"/><path d="M197.5 223.5h1c0 1.333-.667 2-2 2v-1c.667 0 1-.333 1-1z" fill="#5f3332" class="C"/><use xlink:href="#C" x="113" y="219" class="D"/><use xlink:href="#C" x="115" y="220" class="C"/><path d="M118.5 225.5c2.076.927 3.243 2.593 3.5 5 .174 4.851.674 9.518 1.5 14 3.303 3.656 7.303 6.322 12 8 2.427 2.058 5.093 3.891 8 5.5 2.606 1.938 4.439 4.438 5.5 7.5 2.474 7.816 3.974 15.816 4.5 24-1.426-5.379-4.093-10.212-8-14.5-4.617-1.297-8.45-.13-11.5 3.5a129.47 129.47 0 0 1-12 18l11-20c3.427-4.261 7.594-7.594 12.5-10-6.587-5.419-13.587-10.252-21-14.5-8.822-6.599-11.155-14.766-7-24.5v-1c0-.667.333-1 1-1z" fill="#1f1b1a"/><path d="M204.5 231.5c-.667-1.333-.667-1.333 0 0z" class="H"/><path d="M204.5 231.5c1.073.751 1.24 1.751.5 3-.483-.948-.649-1.948-.5-3z" class="G"/><path d="M189.5 243.5c-1.758.377-3.425 1.044-5 2a434.92 434.92 0 0 0-56 0l-5-3c-.166-4.014.001-8.014.5-12a354.47 354.47 0 0 0 14.5 10.5c5.42 1.091 10.92 1.591 16.5 1.5 13.402 2.029 24.569-1.971 33.5-12 .992 4.283 1.326 8.616 1 13z" fill="#d9a082"/><path d="M211.5 250.5c0-.667-.333-1-1-1 .247-2.475.913-2.475 2 0-.124.607-.457.94-1 1z" class="F"/><path d="M123.5 242.5l5 3a434.92 434.92 0 0 1 56 0c1.575-.956 3.242-1.623 5-2v2a43.56 43.56 0 0 1-13 8 135.59 135.59 0 0 1-21 2c-6.88.258-13.546-.742-20-3-4.697-1.678-8.697-4.344-12-8v-2z" fill="#e1ae93"/><path d="M214.5 253.5c1.279-1.215 2.279-.882 3 1h-2c0-.667-.333-1-1-1z" class="G"/><path d="m217.5 254.5c2.433 1.048 2.433 1.714 0 2v-2z" class="G"/><path d="M135.5 252.5c6.454 2.258 13.12 3.258 20 3a135.59 135.59 0 0 0 21-2c-11.955 7.565-17.955 18.565-18 33a301.2 301.2 0 0 0-3 16c.344-4.622-.323-8.955-2-13-.526-8.184-2.026-16.184-4.5-24-1.061-3.062-2.894-5.562-5.5-7.5-2.907-1.609-5.573-3.442-8-5.5z" fill="#e8c0aa"/><path d="M221.5 259.5c-.667-1.333-.667-1.333 0 0z" class="D"/><path d="M195.5 225.5h1c.79.901 1.79 1.568 3 2 1 1.667 2.333 3 4 4 .142 6.937 2.476 12.937 7 18 .667 0 1 .333 1 1 .667 1.333 1.667 2.333 3 3 .667 0 1 .333 1 1a3 3 0 0 0 2 2c.667 1.333 1.667 2.333 3 3 .077 1.25.744 2.083 2 2.5 1.973.495 3.973.662 6 .5 1.068.934 2.401 1.268 4 1 1.419.951 3.085 1.284 5 1 3.127 1.081 6.46 1.747 10 2 .709.904 1.709 1.237 3 1 4.187 1.469 8.52 2.802 13 4 5.219 2.535 10.219 5.535 15 9 0 .667.333 1 1 1 1 1.667 2.333 3 4 4 0 .667.333 1 1 1 0 .667.333 1 1 1 .949 2.277 2.282 4.277 4 6 .16 1.653.826 2.986 2 4 .428 3.285 1.428 6.285 3 9l1 8h-3c-4.334-21.83-17-36.33-38-43.5l-32.5-6.5c-5.146 8.946-10.813 17.612-17 26-.315-1.408.018-2.741 1-4 4.057-5.058 7.724-10.392 11-16a16.59 16.59 0 0 0 1-10c-9.444-7.096-15.11-16.429-17-28-.782-2.688-2.282-3.688-4.5-3 3.021 6.159 2.187 11.826-2.5 17-.414-.457-.914-.791-1.5-1-.995-5.628-1.329-11.294-1-17 1.026-1.353 2.359-2.353 4-3z" fill="#0e0c0c" opacity=".826"/><use xlink:href="#C" x="135" y="252" class="H"/><path d="M228.5 261.5a8.43 8.43 0 0 1-4-.5c1.566-.765 2.899-.598 4 .5z" class="G"/><path d="M228.5 262.5v-1c3.281-.08 6.281.587 9 2h-5c-1.068-.934-2.401-1.268-4-1z" class="D"/><path d="M237.5 264.5v-1c5.333.333 5.333.667 0 1zm-171 1c1.788-1.122 3.788-1.289 6-.5a18.45 18.45 0 0 1-6 .5z" opacity=".007"/><path d="M61.5 266.5c1.419-.951 3.085-1.284 5-1-1.419.951-3.085 1.284-5 1z" class="J"/><path d="M247.5 266.5c2.226-1.059 4.559-.892 7 .5a8.43 8.43 0 0 1-4 .5c-.709-.904-1.709-1.237-3-1z" opacity=".011"/><path d="M61.5 266.5v1c-5.333-.333-5.333-.667 0-1z" opacity=".015"/><path d="M189.5 245.5h1c-4.029 5.535-9.029 10.035-15 13.5l-8 8c3.991.412 7.158 2.246 9.5 5.5 3.419 5.168 6.585 10.502 9.5 16-.346 1.196-.846 1.196-1.5 0-2.452-5.778-6.286-10.278-11.5-13.5a12.49 12.49 0 0 0-7 0c-2.84 3.847-5.006 8.014-6.5 12.5-1.04 8.972-1.54 17.972-1.5 27h-1a442.45 442.45 0 0 1 1-28c.045-14.435 6.045-25.435 18-33a43.56 43.56 0 0 0 13-8z" fill="#181514"/><path d="M56.5 268.5a8.43 8.43 0 0 1-4-.5c1.566-.765 2.899-.598 4 .5z" class="G"/><path d="M117.5 227.5c-4.155 9.734-1.822 17.901 7 24.5 7.413 4.248 14.413 9.081 21 14.5-4.906 2.406-9.073 5.739-12.5 10l-11 20a129.47 129.47 0 0 0 12-18c3.05-3.63 6.883-4.797 11.5-3.5 3.907 4.288 6.574 9.121 8 14.5 1.677 4.045 2.344 8.378 2 13v12h-135c2.325-24.154 15.325-38.654 39-43.5a235.22 235.22 0 0 0 29.5-5.5c1.711-.061 3.044.606 4 2-.374-2.269-.374-4.602 0-7 9.101-5.858 14.435-14.191 16-25 2.047-3.548 4.88-6.215 8.5-8z" fill="#323131"/><path d="M191.5 228.5c-.329 5.706.005 11.372 1 17 .586.209 1.086.543 1.5 1 4.687-5.174 5.521-10.841 2.5-17 2.218-.688 3.718.312 4.5 3 1.89 11.571 7.556 20.904 17 28a16.59 16.59 0 0 1-1 10c-3.276 5.608-6.943 10.942-11 16-.982 1.259-1.315 2.592-1 4 6.187-8.388 11.854-17.054 17-26l32.5 6.5c21 7.17 33.666 21.67 38 43.5h-134c-.04-9.028.46-18.028 1.5-27 1.494-4.486 3.66-8.653 6.5-12.5a12.49 12.49 0 0 1 7 0c5.214 3.222 9.048 7.722 11.5 13.5.654 1.196 1.154 1.196 1.5 0-2.915-5.498-6.081-10.832-9.5-16-2.342-3.254-5.509-5.088-9.5-5.5l8-8c5.971-3.465 10.971-7.965 15-13.5-.322-5.858.011-11.525 1-17z" fill="#323232"/><path d="M51.5 269.5c-.992-.172-1.658.162-2 1-1.847.266-2.514-.068-2-1 1.495-1.205 2.828-1.205 4 0z" class="E"/><path d="M117.5 226.5v1c-3.62 1.785-6.453 4.452-8.5 8-1.565 10.809-6.899 19.142-16 25-.374 2.398-.374 4.731 0 7-.956-1.394-2.289-2.061-4-2-9.717 2.461-19.55 4.295-29.5 5.5-23.675 4.846-36.675 19.346-39 43.5h-3a109.58 109.58 0 0 1 4-20c.667 0 1-.333 1-1 6.252-10.921 15.252-18.588 27-23 .992.172 1.658-.162 2-1 1.915.284 3.581-.049 5-1 1.915.284 3.581-.049 5-1 8.685-.984 17.352-2.15 26-3.5l-5-1a52.55 52.55 0 0 1 7-1.5c.193-3.949.693-3.949 1.5 0l1-3a51.03 51.03 0 0 0 9-8c3.554-6.44 6.554-13.107 9-20 2.185-2.04 4.685-3.374 7.5-4z" fill="#060505" opacity=".723"/><use xlink:href="#B" x="83" y="269" class="J"/><use xlink:href="#B" x="-139" y="270" class="C"/><use xlink:href="#B" x="86" y="270" class="F"/><use xlink:href="#F" x="-177" y="250" class="D"/><use xlink:href="#C" x="-56" y="272" class="B"/><path d="M278.5 280.5c.997-1.213 1.997-1.046 3 .5-.594.464-1.261.631-2 .5-.667 0-1-.333-1-1z" class="G"/><use xlink:href="#F" x="-188" y="258" class="B"/><use xlink:href="#F" x="-189" y="259" class="B"/><use xlink:href="#F" x="-190" y="260" class="B"/><path d="M285.5 286.5h-1c-.667 0-1-.333-1-1 .801-2.293 1.468-1.96 2 1z" opacity=".007"/><path d="M285.5 286.5c.667 0 1 .333 1 1l-1-1z" class="B"/><use xlink:href="#C" x="200" y="280" class="B"/><path d="M22.5 293.5c-.667 0-1 .333-1 1h-1c.532-2.96 1.199-3.293 2-1z" class="E"/><use xlink:href="#D" x="72" y="280" class="F"/><path d="M20.5 294.5a4.93 4.93 0 0 1-.5 3c-.74-1.249-.573-2.249.5-3z" class="C"/><path d="M292.5 297.5h-1c.333-2.667.667-2.667 1 0z" class="D"/><path d="M292.5 297.5c.838.342 1.172 1.008 1 2-.838-.342-1.172-1.008-1-2z" class="E"/><path d="M158.5 286.5a442.45 442.45 0 0 0-1 28h-2v-12a301.2 301.2 0 0 1 3-16z" fill="#9f8374"/><path d="M293.5 299.5c1.073.751 1.24 1.751.5 3-.483-.948-.649-1.948-.5-3z" class="C"/><path d="M295.5 306.5h-1c.333-4 .667-4 1 0z" class="E"/><path d="M16.5 304.5c1.098 1.101 1.265 2.434.5 4-.49-1.293-.657-2.627-.5-4z" class="B"/><path d="M295.5 306.5c.904.709 1.237 1.709 1 3-.904-.709-1.237-1.709-1-3z" class="J"/><path d="M16.5 314.5h-1c.333-6.667.667-6.667 1 0z" class="C"/><path d="M296.5 309.5c.951 1.419 1.284 3.085 1 5h-1v-5z" class="B"/><defs ><path id="B" d="M180.5 2.5c.397-1.025 1.063-1.192 2-.5-.594.464-1.261.631-2 .5z"/><path id="C" d="M86.5 7.5c1.333.667 1.333.667 0 0z"/><path id="D" d="M217.5 13.5c-.131-.739.036-1.406.5-2 .692.937.525 1.603-.5 2z"/><path id="E" d="M220.5 19.5h1c-.185.67-.519.67-1 0z"/><path id="F" d="M218.5 22.5c-.667.667-.667.667 0 0z"/><path id="G" d="M244.5 157.5h1c.172.992-.162 1.658-1 2v-2z"/><path id="H" d="M237.5 168.5h1c.073 1.527-.594 2.527-2 3v-2c.667 0 1-.333 1-1z"/></defs></svg>